Coordinates
version=1
nRows=11
nColumns=40
inDegrees=yes

Units are S.I. units (second, meters, Newtons, ...)
Angles are in degrees.

endheader
time	pelvis_tilt	pelvis_list	pelvis_rotation	pelvis_tx	pelvis_ty	pelvis_tz	hip_flexion_r	hip_adduction_r	hip_rotation_r	knee_angle_r	knee_angle_r_beta	ankle_angle_r	subtalar_angle_r	mtp_angle_r	hip_flexion_l	hip_adduction_l	hip_rotation_l	knee_angle_l	knee_angle_l_beta	ankle_angle_l	subtalar_angle_l	mtp_angle_l	lumbar_extension	lumbar_bending	lumbar_rotation	arm_flex_r	arm_add_r	arm_rot_r	elbow_flex_r	pro_sup_r	wrist_flex_r	wrist_dev_r	arm_flex_l	arm_add_l	arm_rot_l	elbow_flex_l	pro_sup_l	wrist_flex_l	wrist_dev_l
     10.88500000	     -5.16622548	     -4.73189377	      1.53296853	      1.01092457	      0.91489621	      0.46861689	     26.02191062	     -0.41386799	    -15.78122581	     24.82899030	     24.82899030	      6.02204532	     -3.20222739	      0.38811356	      7.74724430	    -11.23794075	     -4.25908196	     42.58531015	     42.58531015	     10.43304979	    -14.42701572	    -13.08467494	    -12.13388348	      4.98452502	      1.93644804	    -16.26501545	    -13.90557556	     -5.86966438	     30.52269444	     46.60293083	      0.00000000	      0.00000000	     10.07366601	    -14.37370368	    -10.29278200	    101.33279365	     48.22185639	      0.00000000	      0.00000000
     10.89685714	     -5.24688301	     -4.90657668	      1.71693634	      1.01109548	      0.91599816	      0.47152870	     25.31663405	     -0.03378320	    -16.06177073	     24.48282342	     24.48282342	      6.52862652	     -2.99174849	      0.26868049	      9.93745169	    -11.68112107	     -2.97900245	     46.64161606	     46.64161606	      8.22168696	    -15.83867471	    -12.27230524	    -12.14112551	      5.04031599	      2.00038426	    -15.06013063	    -13.63132329	     -5.69481699	     31.12514365	     46.56985708	      0.00000000	      0.00000000	      8.72537328	    -13.90452251	    -10.12686540	     99.89914989	     48.18048218	      0.00000000	      0.00000000
     10.90871429	     -5.37054849	     -4.92704224	      1.86953478	      1.01099506	      0.91706391	      0.47425854	     24.68428552	      0.18086252	    -16.29813930	     24.15297085	     24.15297085	      6.97927365	     -2.71677786	      0.06496531	     12.38677613	    -11.69510460	     -1.45531051	     50.93328653	     50.93328653	      7.84919666	    -16.24418527	     -6.61650765	    -12.08314975	      4.94310003	      1.99321635	    -13.95972101	    -13.69082706	     -4.08104795	     32.41584917	     46.36339718	      0.00000000	      0.00000000	      7.63704367	    -13.32847382	    -10.26507901	     97.30581692	     48.18367878	      0.00000000	      0.00000000
     10.92057143	     -5.45847758	     -5.02733249	      2.02899732	      1.01077185	      0.91805872	      0.47688346	     23.99100534	      0.50912644	    -16.47963479	     23.74532481	     23.74532481	      7.34779644	     -2.57432804	     -0.16488347	     14.76856658	    -11.77234813	     -0.08282137	     54.78219756	     54.78219756	      6.99218602	    -16.60683520	     -2.84642726	    -12.08193074	      4.92134605	      2.15764733	    -12.69416626	    -13.64110862	     -3.35401006	     33.38585306	     46.25106075	      0.00000000	      0.00000000	      6.67054956	    -12.70246784	    -10.09061628	     94.67860688	     48.15185849	      0.00000000	      0.00000000
     10.93242857	     -5.54977139	     -5.18350826	      2.21757678	      1.01038682	      0.91897635	      0.47940481	     23.29792617	      0.91052933	    -16.61252172	     23.29962890	     23.29962890	      7.72771848	     -2.52063552	     -0.22740145	     17.06033653	    -11.88279329	      1.17263818	     58.02001074	     58.02001074	      5.33063791	    -17.19910622	     -2.00922185	    -12.12735581	      4.92960856	      2.15405566	    -11.13007342	    -13.51907765	     -3.33455042	     34.13209980	     46.22788940	      0.00000000	      0.00000000	      5.36018646	    -12.27970222	     -9.76395302	     92.78870952	     48.09052576	      0.00000000	      0.00000000
     10.94428571	     -5.55912320	     -5.26928680	      2.35123210	      1.00980663	      0.91994642	      0.48172884	     22.57199191	      1.24257451	    -16.65190589	     22.93614856	     22.93614856	      8.11430988	     -2.51859883	     -0.30783307	     19.21985673	    -11.85465870	      2.26138284	     60.83353815	     60.83353815	      4.06620397	    -17.58214634	     -1.14701340	    -12.29643465	      4.91365349	      2.23807432	     -9.32245227	    -13.36237093	     -3.30977323	     34.96714827	     46.20381517	      0.00000000	      0.00000000	      4.19129111	    -11.68310730	     -9.40139697	     90.69765854	     48.02258278	      0.00000000	      0.00000000
     10.95614286	     -5.73093375	     -5.27151639	      2.61497457	      1.00892303	      0.92082485	      0.48367038	     21.95459619	      1.47748339	    -16.60489590	     22.38133783	     22.38133783	      8.23814620	     -2.74455257	     -0.64890030	     21.78416472	    -11.46622914	      3.55262740	     63.63416474	     63.63416474	      5.27356370	    -17.08727428	      4.92331460	    -12.09711186	      4.83203489	      2.81992708	     -8.35586496	    -13.50129527	     -2.93328195	     36.32042742	     46.11195370	      0.00000000	      0.00000000	      4.80237307	    -10.77234859	     -9.27520142	     84.04215222	     47.90676790	      0.00000000	      0.00000000
     10.96800000	     -5.79461721	     -5.33391942	      2.89031018	      1.00789161	      0.92169506	      0.48554600	     21.26175006	      1.77157121	    -16.58103753	     21.89115697	     21.89115697	      8.48916514	     -2.96820753	     -0.79130767	     24.05954353	    -11.26551518	      4.50979663	     65.60125428	     65.60125428	      5.13429306	    -17.12368275	      6.52997763	    -12.16229682	      4.78501919	      2.73712018	     -6.68932995	    -13.49403221	     -3.03952035	     37.79687714	     46.05717277	      0.00000000	      0.00000000	      4.20724770	    -10.47260714	     -8.76713560	     80.07316946	     47.80789371	      0.00000000	      0.00000000
     10.97985714	     -5.87734694	     -5.41569194	      3.23362699	      1.00671424	      0.92255243	      0.48713008	     20.57467329	      2.05216546	    -16.63086530	     21.35493656	     21.35493656	      8.69049299	     -3.19216385	     -0.92881555	     26.29836523	    -11.01955421	      5.40496549	     66.97379453	     66.97379453	      5.23256272	    -17.16445867	      7.66219736	    -12.20586818	      4.79750473	      3.03640302	     -5.12357548	    -13.57564106	     -3.19508180	     39.32510601	     46.00102195	      0.00000000	      0.00000000	      4.08605845	     -9.85155252	     -8.31549354	     75.34818336	     47.70413580	      0.00000000	      0.00000000
     10.99171429	     -5.94016322	     -5.52111904	      3.65956810	      1.00537954	      0.92333509	      0.48852217	     19.85049437	      2.34110757	    -16.74875575	     20.77225846	     20.77225846	      8.98085864	     -3.35752244	     -0.91797682	     28.48905975	    -10.82567248	      6.11838489	     67.77771855	     67.77771855	      5.16032133	    -17.39868571	      7.81749164	    -12.24562319	      4.79162154	      2.48908752	     -2.90353026	    -13.51568486	     -3.38455046	     40.71803012	     45.96801855	      0.00000000	      0.00000000	      3.03113847	     -9.74369085	     -7.94982024	     72.19199795	     47.61995013	      0.00000000	      0.00000000
     11.00357143	     -5.97224095	     -5.53422754	      4.05665993	      1.00391261	      0.92422765	      0.48971923	     19.11795932	      2.53833975	    -16.76626856	     20.21319878	     20.21319878	      9.14781647	     -3.64529010	     -1.06008596	     30.53048541	    -10.55908095	      6.56154784	     67.99043726	     67.99043726	      5.48885032	    -17.62488706	      8.59970200	    -12.32833117	      4.75547200	      3.01612343	     -1.44281119	    -13.76384248	     -3.44830254	     42.49473355	     45.90050662	      0.00000000	      0.00000000	      3.93609610	     -8.77682886	     -7.86668676	     65.31412811	     47.51291766	      0.00000000	      0.00000000
